<?xml version="1.0" encoding="UTF-8"?>
<svg version="1.1" xmlns="http://www.w3.org/2000/svg" width="551" height="311">
<path d="M0 0 C13.09262157 17.28226047 18.25538294 37.00293251 15.39453125 58.43945312 C12.31809688 76.07651156 2.06705552 91.6731972 -12.26171875 102.20703125 C-29.377568 113.31066763 -48.51917514 118.21246583 -68.75634766 114.30664062 C-82.79106865 111.17995055 -94.28835131 104.6442737 -104.32421875 94.33203125 C-105.10410156 93.57277344 -105.88398437 92.81351562 -106.6875 92.03125 C-115.26087492 83.22733054 -120.54803923 72.26960321 -123.32421875 60.33203125 C-123.66839844 59.05005859 -123.66839844 59.05005859 -124.01953125 57.7421875 C-124.32421875 55.33203125 -124.32421875 55.33203125 -122.32421875 52.33203125 C-121.66421875 53.65203125 -121.00421875 54.97203125 -120.32421875 56.33203125 C-120.3399292 55.69813477 -120.35563965 55.06423828 -120.37182617 54.41113281 C-120.79661597 34.6736422 -119.5384057 17.43246165 -105.88671875 1.89453125 C-104.38749035 0.35239564 -102.86773729 -1.17016417 -101.32421875 -2.66796875 C-100.68742187 -3.31378906 -100.050625 -3.95960937 -99.39453125 -4.625 C-86.28065366 -17.11311165 -68.75570189 -19.96447563 -51.32421875 -19.66796875 C-48.95667556 -19.43619645 -46.6694107 -19.08182615 -44.32421875 -18.66796875 C-44.32421875 -18.00796875 -44.32421875 -17.34796875 -44.32421875 -16.66796875 C-43.33421875 -16.99796875 -42.34421875 -17.32796875 -41.32421875 -17.66796875 C-38.69483884 -16.62039514 -36.26944629 -15.5196119 -33.76171875 -14.23046875 C-33.04371094 -13.86356934 -32.32570313 -13.49666992 -31.5859375 -13.11865234 C-15.45083028 -4.63393656 -4.9494998 8.43579352 0.55078125 25.83203125 C1.4560902 28.95378626 1.67578125 30.98534576 1.67578125 34.33203125 C0.19078125 33.83703125 0.19078125 33.83703125 -1.32421875 33.33203125 C-2.09765625 31.6171875 -2.09765625 31.6171875 -2.69921875 29.39453125 C-6.74264325 16.35655021 -14.50260929 5.4804774 -26.32421875 -1.66796875 C-40.86597953 -9.32264928 -56.93603052 -11.50852519 -72.82421875 -6.66796875 C-79.9517739 -4.28450869 -85.67986036 -0.58188076 -91.32421875 4.33203125 C-91.97777344 4.87601563 -92.63132812 5.42 -93.3046875 5.98046875 C-103.2108374 14.94629979 -108.7369859 28.34227437 -109.703125 41.5078125 C-110.39068513 57.6792268 -105.57192237 71.03191407 -95.26171875 83.45703125 C-84.89272264 94.48492678 -71.98114745 99.05501216 -57.32421875 101.33203125 C-57.65421875 101.99203125 -57.98421875 102.65203125 -58.32421875 103.33203125 C-60.64578472 103.73932353 -62.98109745 104.07641802 -65.32421875 104.33203125 C-47.6787651 104.89518403 -33.36883161 101.33483287 -19.32421875 90.33203125 C-18.61394531 89.78675781 -17.90367187 89.24148437 -17.171875 88.6796875 C-5.6226271 79.25851599 1.48401772 64.96077852 3.67578125 50.33203125 C5.23462217 32.01903922 1.01957395 15.5238948 -10.32421875 0.83203125 C-22.67422793 -13.64728986 -38.91922043 -19.70370219 -57.32421875 -22.66796875 C-57.32421875 -22.99796875 -57.32421875 -23.32796875 -57.32421875 -23.66796875 C-35.97944574 -27.44276784 -13.87819739 -15.93077113 0 0 Z M-119.32421875 58.33203125 C-118.32421875 60.33203125 -118.32421875 60.33203125 -118.32421875 60.33203125 Z M-118.32421875 60.33203125 C-117.32421875 64.33203125 -117.32421875 64.33203125 -117.32421875 64.33203125 Z M-116.32421875 66.33203125 C-114.83441598 76.68616048 -106.7143046 84.54521771 -99.32421875 91.33203125 C-98.66421875 91.00203125 -98.00421875 90.67203125 -97.32421875 90.33203125 C-97.89269531 89.80996094 -98.46117188 89.28789062 -99.046875 88.75 C-104.19374696 83.84371638 -108.16968166 78.91679985 -111.81640625 72.8125 C-113.20138314 70.53410537 -114.68756125 68.43420511 -116.32421875 66.33203125 Z M-97.32421875 91.33203125 C-96.99421875 91.99203125 -96.66421875 92.65203125 -96.32421875 93.33203125 C-95.66421875 93.00203125 -95.00421875 92.67203125 -94.32421875 92.33203125 C-95.31421875 92.00203125 -96.30421875 91.67203125 -97.32421875 91.33203125 Z M-94.32421875 93.33203125 C-88.2942195 99.93967062 -80.11636782 102.83436243 -71.32421875 103.33203125 C-75.32377141 100.66566281 -79.59928919 99.29783876 -84.09765625 97.6484375 C-87.06121501 96.43933423 -89.59628177 94.98518034 -92.32421875 93.33203125 C-92.98421875 93.33203125 -93.64421875 93.33203125 -94.32421875 93.33203125 Z M-71.32421875 103.33203125 C-67.32421875 104.33203125 -67.32421875 104.33203125 -67.32421875 104.33203125 Z " fill="#EF4405" transform="translate(199.32421875,99.66796875)"/>
<path d="M0 0 C13.09262157 17.28226047 18.25538294 37.00293251 15.39453125 58.43945312 C12.31809688 76.07651156 2.06705552 91.6731972 -12.26171875 102.20703125 C-25.1693554 110.58065629 -38.59772935 115.53435547 -54.07421875 115.51953125 C-54.77289063 115.52017578 -55.4715625 115.52082031 -56.19140625 115.52148438 C-61.73680926 115.46521184 -66.95732199 114.77696499 -72.32421875 113.33203125 C-71.33421875 113.00203125 -70.34421875 112.67203125 -69.32421875 112.33203125 C-69.43728572 110.37308764 -69.43728572 110.37308764 -70.32421875 108.33203125 C-72.81456261 107.03542691 -72.81456261 107.03542691 -75.32421875 106.33203125 C-75.32421875 106.00203125 -75.32421875 105.67203125 -75.32421875 105.33203125 C-72.68421875 105.00203125 -70.04421875 104.67203125 -67.32421875 104.33203125 C-67.32421875 103.34203125 -67.32421875 102.35203125 -67.32421875 101.33203125 C-68.64421875 101.33203125 -69.96421875 101.33203125 -71.32421875 101.33203125 C-71.32421875 100.67203125 -71.32421875 100.01203125 -71.32421875 99.33203125 C-66.70421875 99.99203125 -62.08421875 100.65203125 -57.32421875 101.33203125 C-57.65421875 101.99203125 -57.98421875 102.65203125 -58.32421875 103.33203125 C-60.64578472 103.73932353 -62.98109745 104.07641802 -65.32421875 104.33203125 C-47.6787651 104.89518403 -33.36883161 101.33483287 -19.32421875 90.33203125 C-18.61394531 89.78675781 -17.90367187 89.24148437 -17.171875 88.6796875 C-5.6226271 79.25851599 1.48401772 64.96077852 3.67578125 50.33203125 C5.23462217 32.01903922 1.01957395 15.5238948 -10.32421875 0.83203125 C-22.67422793 -13.64728986 -38.91922043 -19.70370219 -57.32421875 -22.66796875 C-57.32421875 -22.99796875 -57.32421875 -23.32796875 -57.32421875 -23.66796875 C-35.97944574 -27.44276784 -13.87819739 -15.93077113 0 0 Z " fill="#F2C126" transform="translate(199.32421875,99.66796875)"/>
<path d="M0 0 C0 0.66 0 1.32 0 2 C0.99 1.67 1.98 1.34 3 1 C5.62937991 2.04757361 8.05477246 3.14835685 10.5625 4.4375 C11.28050781 4.80439941 11.99851562 5.17129883 12.73828125 5.54931641 C28.87338847 14.03403219 39.37471895 27.10376227 44.875 44.5 C45.78030895 47.62175501 46 49.65331451 46 53 C44.515 52.505 44.515 52.505 43 52 C42.2265625 50.28515625 42.2265625 50.28515625 41.625 48.0625 C37.5815755 35.02451896 29.82160946 24.14844615 18 17 C3.45823922 9.34531947 -12.61181177 7.15944356 -28.5 12 C-35.62755515 14.38346006 -41.35564161 18.08608799 -47 23 C-47.65355469 23.54398438 -48.30710937 24.08796875 -48.98046875 24.6484375 C-58.23536136 33.02483037 -62.19143096 44.20749895 -65 56 C-65.33 56 -65.66 56 -66 56 C-65.88496731 53.4783624 -65.75825223 50.9581881 -65.625 48.4375 C-65.5940625 47.73302734 -65.563125 47.02855469 -65.53125 46.30273438 C-65.27047442 41.58704259 -64.45341877 37.49614504 -63 33 C-64.32 33 -65.64 33 -67 33 C-67.66 34.32 -68.32 35.64 -69 37 C-69.66 37 -70.32 37 -71 37 C-68.18025872 25.0944257 -57.66742979 15.00405921 -47.9375 8.25 C-33.37182163 -0.4489468 -16.57869641 -2.42706141 0 0 Z " fill="#F74C05" transform="translate(155,81)"/>
<path d="M0 0 C5.48092694 -0.07420027 10.96156099 -0.1286258 16.44287109 -0.16479492 C18.30718072 -0.17987414 20.17145492 -0.20034061 22.03564453 -0.22631836 C24.71656033 -0.26273996 27.3970068 -0.2797349 30.078125 -0.29296875 C30.91055725 -0.30845261 31.7429895 -0.32393646 32.60064697 -0.33988953 C38.42460278 -0.34158031 38.42460278 -0.34158031 41.55761719 1.51831055 C42.03360352 2.00726807 42.50958984 2.49622559 43 3 C42.8046875 4.859375 42.8046875 4.859375 42 7 C35.08635468 11.13288023 27.8306982 11.40678952 20 11 C20 14.63 20 18.26 20 22 C21.20398438 21.96519531 22.40796875 21.93039063 23.6484375 21.89453125 C25.22394442 21.8663972 26.79946638 21.83909663 28.375 21.8125 C29.1690625 21.78736328 29.963125 21.76222656 30.78125 21.73632812 C32.85586148 21.70995595 34.93100865 21.84513538 37 22 C39 25 39 25 38.8125 27.5625 C38 30 38 30 35 32 C32.41114829 32.29991069 29.90850918 32.50865225 27.3125 32.625 C26.61060547 32.66367188 25.90871094 32.70234375 25.18554688 32.7421875 C23.45745345 32.8362334 21.72876325 32.9191968 20 33 C20.01160156 33.81082031 20.02320313 34.62164062 20.03515625 35.45703125 C20.09382561 42.65659999 20.10265446 49.86677857 19 57 C18 58 18 58 14.9375 58.0625 C13.968125 58.041875 12.99875 58.02125 12 58 C8.68169855 50.542647 8.54762737 43.93924658 8.47265625 35.86914062 C8.35019503 30.61411367 8.09126928 27.42223244 5 23 C5.33 22.01 5.66 21.02 6 20 C6.99 20 7.98 20 9 20 C8.979375 19.05125 8.95875 18.1025 8.9375 17.125 C9 14 9 14 10 12 C9.278125 11.979375 8.55625 11.95875 7.8125 11.9375 C4.17471039 10.72490346 3.07258794 8.9429632 0.91796875 5.88671875 C0 4 0 4 0 0 Z " fill="#FBFBFB" transform="translate(124,116)"/>
<path d="M0 0 C3.37873195 2.45123691 4.45202585 3.2673922 5.1875 7.3125 C4.95082209 9.35540404 4.61540901 11.37004593 4.27734375 13.3984375 C4.1428225 16.26432505 5.69048723 17.94222978 7.1875 20.3125 C7.11503907 23.8630857 6.67376767 25.68215302 4.5 28.5 C-2.1684345 33.72661082 -8.60220913 34.7162848 -16.8125 34.3125 C-19.42059012 31.70440988 -19.10021407 30.49416036 -19.19140625 26.859375 C-19.22556641 25.76496094 -19.25972656 24.67054688 -19.29492188 23.54296875 C-19.32134766 22.39441406 -19.34777344 21.24585938 -19.375 20.0625 C-19.43529541 17.80719519 -19.49899109 15.55197822 -19.56640625 13.296875 C-19.59033447 12.29366211 -19.6142627 11.29044922 -19.63891602 10.25683594 C-19.81811235 7.21730309 -20.26026655 4.30485417 -20.8125 1.3125 C-6.77884912 -3.43126931 -6.77884912 -3.43126931 0 0 Z M-12.8125 6.3125 C-12.8125 8.6225 -12.8125 10.9325 -12.8125 13.3125 C-5.91990765 11.96476477 -5.91990765 11.96476477 -0.8125 7.3125 C-4.98397215 4.53151856 -8.11923743 4.74807914 -12.8125 6.3125 Z M-12.8125 20.3125 C-12.8125 22.6225 -12.8125 24.9325 -12.8125 27.3125 C-5.88764896 25.82903152 -5.88764896 25.82903152 0.1875 22.3125 C0.1875 21.3225 0.1875 20.3325 0.1875 19.3125 C-1.60408489 19.28553635 -3.39578473 19.26612083 -5.1875 19.25 C-6.68410156 19.23259766 -6.68410156 19.23259766 -8.2109375 19.21484375 C-10.79682453 19.13243398 -10.79682453 19.13243398 -12.8125 20.3125 Z " fill="#FCFCFC" transform="translate(376.8125,138.6875)"/>
<path d="M0 0 C4.00487119 2.8269679 6.10744937 5.17258455 7.18359375 10.0703125 C8.04574873 15.88319246 7.87899229 20.75387616 4.6875 25.8125 C0.00940853 30.99757676 -4.73452599 33.81271675 -11.75 34.1875 C-16.30706483 34.066382 -18.84238251 32.87911546 -22.3125 29.8125 C-26.32304652 25.15159458 -27.54159535 20.84866454 -27.3125 14.8125 C-26.34263058 8.62575402 -24.06374184 4.73110293 -19.06640625 0.96484375 C-12.83724541 -3.12781203 -6.47370011 -3.78425852 0 0 Z M-18.625 11.1875 C-20.60087286 14.26108001 -21.23790571 16.15737987 -21.3125 19.8125 C-19.74866066 24.1230786 -19.74866066 24.1230786 -16.3125 26.8125 C-10.21182061 27.41060582 -7.17337223 26.27119755 -2.3125 22.8125 C0.40918085 19.36503759 1.50448979 16.20474506 1.6875 11.8125 C0.3135627 8.93377423 -1.06239437 7.06260563 -3.3125 4.8125 C-10.30368695 4.00582458 -13.84714584 6.28051464 -18.625 11.1875 Z " fill="#FBFBFB" transform="translate(314.3125,139.1875)"/>
<path d="M0 0 C4.33250559 3.27344867 6.01067454 6.36202033 6.8984375 11.6015625 C7.1230558 16.90600993 5.70811009 21.06733233 2.1875 25.05078125 C-3.18661587 29.96687588 -7.819747 32.12749724 -15.125 32.75 C-16.67574219 32.89695312 -16.67574219 32.89695312 -18.2578125 33.046875 C-21 33 -21 33 -24 31 C-24.43237305 28.01904297 -24.43237305 28.01904297 -24.51171875 24.2421875 C-24.52966995 23.57913605 -24.54762115 22.91608459 -24.56611633 22.23294067 C-24.62032924 20.11369197 -24.65414771 17.99466975 -24.6875 15.875 C-24.72066367 14.43877048 -24.75515245 13.0025709 -24.79101562 11.56640625 C-24.87605964 8.04448871 -24.94281873 4.52249241 -25 1 C-15.93863962 -2.91190674 -9.27485091 -4.98093845 0 0 Z M-18 6 C-18 12.6 -18 19.2 -18 26 C-8.13288923 23.98473505 -8.13288923 23.98473505 -1.125 17.6875 C0.31061014 14.25798689 0.34116865 11.68462145 0 8 C-1.72226496 4.75150023 -1.72226496 4.75150023 -5 4 C-10.18813736 3.70633185 -12.86815647 4.28938549 -18 6 Z " fill="#FCFCFC" transform="translate(348,140)"/>
<path d="M0 0 C4.08994702 2.64046241 6.61719096 5.97325283 8.375 10.5 C9.43049047 16.33297363 8.70577391 21.57091465 5.78515625 26.7421875 C2.5841826 30.73232085 -1.85320553 32.90940184 -6.625 34.5 C-12.09533097 34.92079469 -15.8025321 34.13870885 -20.625 31.5 C-25.63226086 26.2291991 -26.05512384 21.61604486 -25.953125 14.578125 C-25.45003601 9.8586711 -24.03950627 6.80018128 -20.625 3.5 C-13.86037042 -1.17353632 -7.86326201 -3.25376359 0 0 Z M-18.0625 12.3125 C-19.92686207 16.11579862 -20.23385138 18.31414673 -19.625 22.5 C-18.235911 25.54913936 -18.235911 25.54913936 -15.625 27.5 C-10.44126248 28.26796111 -6.99839168 27.31840797 -2.625 24.5 C1.16696905 21.0154879 2.25017459 17.67161722 2.6015625 12.66015625 C2.51302361 10.18823655 2.51302361 10.18823655 0.3125 7.4375 C-6.74412755 2.78312864 -13.06844011 6.5501232 -18.0625 12.3125 Z " fill="#FBFBFB" transform="translate(277.625,138.5)"/>
<path d="M0 0 C1.31484375 -0.01675781 2.6296875 -0.03351563 3.984375 -0.05078125 C5.06203125 0.06910156 6.1396875 0.18898437 7.25 0.3125 C9.25 3.3125 9.25 3.3125 8.875 5.5 C8.66875 6.098125 8.4625 6.69625 8.25 7.3125 C7.33476562 7.37308594 6.41953125 7.43367187 5.4765625 7.49609375 C4.28804688 7.57988281 3.09953125 7.66367188 1.875 7.75 C0.09996094 7.87181641 0.09996094 7.87181641 -1.7109375 7.99609375 C-4.66518901 8.12334936 -4.66518901 8.12334936 -6.75 9.3125 C-6.75 10.9625 -6.75 12.6125 -6.75 14.3125 C-5.50283203 14.16941406 -5.50283203 14.16941406 -4.23046875 14.0234375 C-3.14378906 13.91257813 -2.05710937 13.80171875 -0.9375 13.6875 C0.14144531 13.57148438 1.22039062 13.45546875 2.33203125 13.3359375 C5.25 13.3125 5.25 13.3125 8.25 15.3125 C8.25 16.9625 8.25 18.6125 8.25 20.3125 C2.97 20.6425 -2.31 20.9725 -7.75 21.3125 C-7.75 23.6225 -7.75 25.9325 -7.75 28.3125 C-6.16058594 28.18681641 -6.16058594 28.18681641 -4.5390625 28.05859375 C-3.15106375 27.95543168 -1.76304165 27.85258337 -0.375 27.75 C0.32367188 27.69392578 1.02234375 27.63785156 1.7421875 27.58007812 C7.0234375 27.19921875 7.0234375 27.19921875 9.25 28.3125 C9.875 30.875 9.875 30.875 10.25 33.3125 C6.56702064 35.58976205 3.08050066 35.80775515 -1.1875 36.125 C-2.48558594 36.23457031 -3.78367187 36.34414062 -5.12109375 36.45703125 C-9.15829909 36.29623836 -10.67883928 35.88959311 -13.75 33.3125 C-14.31762695 30.1262207 -14.31762695 30.1262207 -14.23828125 26.23828125 C-14.23120651 25.5544487 -14.22413177 24.87061615 -14.21684265 24.1660614 C-14.18888004 21.98458841 -14.12615064 19.80569506 -14.0625 17.625 C-14.03741897 16.1452194 -14.01460544 14.66539851 -13.99414062 13.18554688 C-13.93905135 9.56036137 -13.85277108 5.93668247 -13.75 2.3125 C-8.98064064 0.61861035 -5.08261116 0.01506703 0 0 Z " fill="#FBFBFB" transform="translate(441.75,136.6875)"/>
<path d="M0 0 C0.66 0.33 1.32 0.66 2 1 C1.34 2.65 0.68 4.3 0 6 C0.66 6.33 1.32 6.66 2 7 C0.7315625 6.814375 0.7315625 6.814375 -0.5625 6.625 C-4.37029257 7.04039555 -4.87225683 7.52839578 -7.5 10.0625 C-9.25390625 11.73046875 -9.25390625 11.73046875 -11 13 C-14.4375 12.875 -14.4375 12.875 -17 12 C-16.505 13.485 -16.505 13.485 -16 15 C-16.9375 17.1875 -16.9375 17.1875 -18 19 C-17.01 19.66 -16.02 20.32 -15 21 C-14.505 20.505 -14.505 20.505 -14 20 C-12.33382885 19.95936168 -10.66611905 19.957279 -9 20 C-11.39616592 22.39616592 -12.9957104 22.71336159 -16.25 23.5625 C-17.18328125 23.81128906 -18.1165625 24.06007812 -19.078125 24.31640625 C-24.66734177 25.62404386 -30.01367961 26.19299456 -35.75 26.1875 C-36.44867188 26.18814453 -37.14734375 26.18878906 -37.8671875 26.18945312 C-43.41259051 26.13318059 -48.63310324 25.44493374 -54 24 C-53.01 23.67 -52.02 23.34 -51 23 C-51.11306697 21.04105639 -51.11306697 21.04105639 -52 19 C-54.49034386 17.70339566 -54.49034386 17.70339566 -57 17 C-57 16.67 -57 16.34 -57 16 C-54.36 15.67 -51.72 15.34 -49 15 C-49 14.01 -49 13.02 -49 12 C-50.32 12 -51.64 12 -53 12 C-53 11.34 -53 10.68 -53 10 C-48.38 10.66 -43.76 11.32 -39 12 C-39.33 12.66 -39.66 13.32 -40 14 C-42.32156597 14.40729228 -44.6568787 14.74438677 -47 15 C-29.32567649 15.56407415 -15.09751919 11.9942917 -1 1 C-0.67 0.67 -0.34 0.34 0 0 Z " fill="#EBA02D" transform="translate(181,189)"/>
<path d="M0 0 C1.81564453 -0.02513672 1.81564453 -0.02513672 3.66796875 -0.05078125 C6.8125 0.3125 6.8125 0.3125 8.80078125 1.58203125 C9.8125 3.3125 9.8125 3.3125 8.8125 7.3125 C3.8625 7.6425 -1.0875 7.9725 -6.1875 8.3125 C-6.1875 10.6225 -6.1875 12.9325 -6.1875 15.3125 C-4.81464844 15.27769531 -4.81464844 15.27769531 -3.4140625 15.2421875 C-2.22554687 15.22414062 -1.03703125 15.20609375 0.1875 15.1875 C1.37085938 15.16429687 2.55421875 15.14109375 3.7734375 15.1171875 C6.8125 15.3125 6.8125 15.3125 8.8125 17.3125 C8.8125 18.6325 8.8125 19.9525 8.8125 21.3125 C4.95405171 22.59864943 1.25408462 22.68421328 -2.7890625 22.93359375 C-3.58054688 23.05863281 -4.37203125 23.18367188 -5.1875 23.3125 C-6.40443876 25.74637753 -6.50709896 27.73088846 -6.75 30.4375 C-6.87568359 31.80261719 -6.87568359 31.80261719 -7.00390625 33.1953125 C-7.06449219 33.89398438 -7.12507812 34.59265625 -7.1875 35.3125 C-8.6725 35.8075 -8.6725 35.8075 -10.1875 36.3125 C-12.1875 35.3125 -12.1875 35.3125 -12.80639648 33.67089844 C-13.30054004 30.61296972 -13.29874438 27.67621893 -13.28515625 24.578125 C-13.28193359 23.28261719 -13.27871094 21.98710937 -13.27539062 20.65234375 C-13.26703598 19.28906183 -13.25857104 17.92578058 -13.25 16.5625 C-13.24498168 15.18359535 -13.24041935 13.80468896 -13.23632812 12.42578125 C-13.22454093 9.05464341 -13.20808635 5.68359372 -13.1875 2.3125 C-8.60711348 0.69501705 -4.87685842 0.01568122 0 0 Z " fill="#FBFBFC" transform="translate(241.1875,136.6875)"/>
<path d="M0 0 C2.68574043 2.42765126 4.34509176 5.08472698 6.1875 8.1875 C14.88361275 21.96693544 26.91494218 28.65820897 42 34 C43.66992364 34.65846583 45.33781185 35.32224431 47 36 C46.01 36.66 45.02 37.32 44 38 C44.66 38.61875 45.32 39.2375 46 39.875 C48 42 48 42 48 44 C36.50257406 44.43284427 26.03423732 37.98635728 17.625 30.625 C16.06141421 29.10556863 14.51931763 27.56369632 13 26 C12.20851563 25.21753906 11.41703125 24.43507812 10.6015625 23.62890625 C5.39678052 18.22527048 -2 9.95614399 -2 2 C-1.34 2 -0.68 2 0 2 C0 1.34 0 0.68 0 0 Z " fill="#DB4E12" transform="translate(82,168)"/>
<path d="M0 0 C2.31 0 4.62 0 7 0 C7 0.66 7 1.32 7 2 C7.99 1.67 8.98 1.34 10 1 C12.62937991 2.04757361 15.05477246 3.14835685 17.5625 4.4375 C18.28050781 4.80439941 18.99851563 5.17129883 19.73828125 5.54931641 C35.87338847 14.03403219 46.37471895 27.10376227 51.875 44.5 C52.78030895 47.62175501 53 49.65331451 53 53 C51.515 52.505 51.515 52.505 50 52 C49.2265625 50.28515625 49.2265625 50.28515625 48.625 48.0625 C44.5815755 35.02451896 36.82160946 24.14844615 25 17 C15.66641388 12.08686596 6.97042427 9.7842674 -3.5 9.375 C-4.32242188 9.33632812 -5.14484375 9.29765625 -5.9921875 9.2578125 C-7.9944701 9.16468308 -9.99720262 9.08131015 -12 9 C-12 8.67 -12 8.34 -12 8 C-4.74 7.67 2.52 7.34 10 7 C10 6.01 10 5.02 10 4 C7.36 4 4.72 4 2 4 C2 3.34 2 2.68 2 2 C1.34 2 0.68 2 0 2 C0 1.34 0 0.68 0 0 Z " fill="#DFB22B" transform="translate(148,81)"/>
<path d="M0 0 C0.38133299 1.9914056 0.71325582 3.99279077 1 6 C0.67 6.33 0.34 6.66 0 7 C-3.3 7 -6.6 7 -10 7 C-10 16.24 -10 25.48 -10 35 C-11.485 35.495 -11.485 35.495 -13 36 C-13.99 35.34 -14.98 34.68 -16 34 C-16.34057617 31.38623047 -16.34057617 31.38623047 -16.29296875 28.1171875 C-16.28330078 26.95058594 -16.27363281 25.78398437 -16.26367188 24.58203125 C-16.23853516 23.35871094 -16.21339844 22.13539063 -16.1875 20.875 C-16.17396484 19.64394531 -16.16042969 18.41289062 -16.14648438 17.14453125 C-16.11103543 14.09592157 -16.06162079 11.048175 -16 8 C-16.62648438 8.01160156 -17.25296875 8.02320313 -17.8984375 8.03515625 C-18.71570313 8.04417969 -19.53296875 8.05320313 -20.375 8.0625 C-21.18710937 8.07410156 -21.99921875 8.08570313 -22.8359375 8.09765625 C-25 8 -25 8 -27 7 C-27 5.35 -27 3.7 -27 2 C-18.60388431 -0.79870523 -8.77478514 -0.15826266 0 0 Z " fill="#FBFBFB" transform="translate(424,137)"/>
<path d="M0 0 C1.65 0 3.3 0 5 0 C4.87882812 0.54785156 4.75765625 1.09570312 4.6328125 1.66015625 C2.99821988 9.39303673 1.98235874 17.16203135 1 25 C0.34 25 -0.32 25 -1 25 C-0.85771699 27.83355099 -0.71126584 30.66678787 -0.5625 33.5 C-0.52318359 34.29148438 -0.48386719 35.08296875 -0.44335938 35.8984375 C-0.23593805 39.79157623 0.0602187 43.60991992 0.625 47.46875 C1 51 1 51 -0.4375 53 C-1.2109375 53.495 -1.2109375 53.495 -2 54 C-6.50787907 44.16462748 -7.34048772 35.65586932 -7.3125 24.875 C-7.32861328 23.62589844 -7.34472656 22.37679687 -7.36132812 21.08984375 C-7.36197266 19.88199219 -7.36261719 18.67414063 -7.36328125 17.4296875 C-7.36626221 16.33897949 -7.36924316 15.24827148 -7.37231445 14.12451172 C-6.94675832 10.5531888 -5.76708917 8.10781077 -4 5 C-3.34 5 -2.68 5 -2 5 C-1.34 3.35 -0.68 1.7 0 0 Z " fill="#F43D03" transform="translate(88,113)"/>
<path d="M0 0 C1.65234375 2.31640625 1.65234375 2.31640625 1.65234375 4.31640625 C0.33234375 3.65640625 -0.98765625 2.99640625 -2.34765625 2.31640625 C-2.34765625 1.65640625 -2.34765625 0.99640625 -2.34765625 0.31640625 C-3.66765625 0.64640625 -4.98765625 0.97640625 -6.34765625 1.31640625 C-5.93773437 1.93386719 -5.5278125 2.55132812 -5.10546875 3.1875 C-1.46539829 8.90885476 0.57225983 13.61988597 1.65234375 20.31640625 C-0.68685464 17.97720786 -1.58714676 15.81963352 -2.97265625 12.81640625 C-9.70730972 -0.84953291 -20.63834415 -11.98329396 -35.1953125 -17.1015625 C-42.45781028 -19.4956979 -49.79009527 -21.46639042 -57.34765625 -22.68359375 C-57.34765625 -23.01359375 -57.34765625 -23.34359375 -57.34765625 -23.68359375 C-35.99090986 -27.46051031 -13.93329983 -15.92708317 0 0 Z " fill="#E6AA2A" transform="translate(199.34765625,99.68359375)"/>
<path d="M0 0 C0.33 0.99 0.66 1.98 1 3 C1.33 2.34 1.66 1.68 2 1 C3.32 1.33 4.64 1.66 6 2 C6.125 4.375 6.125 4.375 6 7 C5.34 7.66 4.68 8.32 4 9 C4 9.66 4 10.32 4 11 C3.34 11 2.68 11 2 11 C2.12375 11.73734375 2.2475 12.4746875 2.375 13.234375 C2 16 2 16 -0.5625 18.203125 C-1.69429842 18.90845349 -2.84126331 19.58985968 -4 20.25 C-4.59216309 20.600625 -5.18432617 20.95125 -5.79443359 21.3125 C-11.48255929 24.53716651 -15.58140351 25 -22 25 C-22.66 23.68 -23.32 22.36 -24 21 C-23.01 19.515 -23.01 19.515 -22 18 C-22 17.34 -22 16.68 -22 16 C-21.154375 16.12375 -20.30875 16.2475 -19.4375 16.375 C-15.11743009 15.90371965 -13.67949417 14.32286733 -10.7109375 11.3125 C-9 10 -9 10 -5 10 C-4.9175 9.278125 -4.835 8.55625 -4.75 7.8125 C-3.85249799 4.44686746 -2.2885722 2.58387184 0 0 Z " fill="#F8B01B" transform="translate(186,185)"/>
<path d="M0 0 C3.52720699 1.7636035 4.66779634 5.42583101 6 9 C6.6540437 12.33417861 6.83740863 15.60787528 6.9375 19 C6.97415771 19.90903076 7.01081543 20.81806152 7.04858398 21.75463867 C7.25443854 30.12141752 6.02554077 37.90928066 4 46 C2.02 46.495 2.02 46.495 0 47 C-0.33 45.35 -0.66 43.7 -1 42 C-1.99 42 -2.98 42 -4 42 C-3.67 40.35 -3.34 38.7 -3 37 C1.75 36 1.75 36 4 36 C4.33 34.68 4.66 33.36 5 32 C3.35 31.67 1.7 31.34 0 31 C-1.39927908 25.91981479 -1.74700052 20.72990483 -2.25 15.5 C-2.36601562 14.45457031 -2.48203125 13.40914062 -2.6015625 12.33203125 C-2.69695312 11.32527344 -2.79234375 10.31851563 -2.890625 9.28125 C-2.98375977 8.36408203 -3.07689453 7.44691406 -3.17285156 6.50195312 C-2.96321961 3.46761949 -2.00768852 2.2249821 0 0 Z " fill="#F7CA22" transform="translate(207,119)"/>
<path d="M0 0 C0.495 1.485 0.495 1.485 1 3 C5.95 3.99 5.95 3.99 11 5 C11.495 6.98 11.495 6.98 12 9 C11.35039307 9.01458252 10.70078613 9.02916504 10.03149414 9.04418945 C7.0412806 9.11941662 4.05209403 9.21582612 1.0625 9.3125 C0.04091797 9.33505859 -0.98066406 9.35761719 -2.03320312 9.38085938 C-9.71383513 9.65078574 -15.82539962 11.27570854 -22.875 14.1875 C-25 15 -25 15 -28 15 C-28 14.34 -28 13.68 -28 13 C-26.68 13 -25.36 13 -24 13 C-24 12.34 -24 11.68 -24 11 C-20.535 10.505 -20.535 10.505 -17 10 C-17 9.01 -17 8.02 -17 7 C-15.68 6.34 -14.36 5.68 -13 5 C-13 4.34 -13 3.68 -13 3 C-13.53625 3.309375 -14.0725 3.61875 -14.625 3.9375 C-17.44588634 5.19947547 -19.93593771 5.54606485 -23 6 C-26.33780839 6.64457677 -29.66884991 7.32192004 -33 8 C-33 7.34 -33 6.68 -33 6 C-31.25093469 5.35163958 -29.50070781 4.70641216 -27.75 4.0625 C-26.77546875 3.70285156 -25.8009375 3.34320313 -24.796875 2.97265625 C-21.03394653 1.66404006 -17.65327175 0.88266359 -13.671875 0.68359375 C-12.87265625 0.64169922 -12.0734375 0.59980469 -11.25 0.55664062 C-10.425 0.51732422 -9.6 0.47800781 -8.75 0.4375 C-7.48929688 0.37272461 -7.48929688 0.37272461 -6.203125 0.30664062 C-4.13559329 0.20091457 -2.06781719 0.09998705 0 0 Z " fill="#ED7F20" transform="translate(147,80)"/>
<path d="M0 0 C4.875 0.875 4.875 0.875 6 2 C6.08843793 4.44830426 6.11528752 6.86820599 6.09765625 9.31640625 C6.0962413 10.04746078 6.09482635 10.77851532 6.09336853 11.53172302 C6.08775408 13.87535632 6.07519922 16.21889539 6.0625 18.5625 C6.05748686 20.14778508 6.05292363 21.73307166 6.04882812 23.31835938 C6.03777997 27.2122761 6.02050572 31.10612205 6 35 C4.125 35.625 4.125 35.625 2 36 C-3.45105601 30.54894399 -1.11784848 16.13297074 -1.1328125 8.53125 C-1.0203479 5.54101465 -0.70229373 2.89835506 0 0 Z " fill="#FCFCFC" transform="translate(388,137)"/>
<path d="M0 0 C1.65 0 3.3 0 5 0 C5.495 1.485 5.495 1.485 6 3 C4.35 3.33 2.7 3.66 1 4 C1.495 5.485 1.495 5.485 2 7 C1 8 1 8 -2.5625 8.0625 C-3.696875 8.041875 -4.83125 8.02125 -6 8 C-6 8.66 -6 9.32 -6 10 C-7.32 10 -8.64 10 -10 10 C-10.06960937 10.59167969 -10.13921875 11.18335937 -10.2109375 11.79296875 C-11.30056944 14.84070164 -12.91462711 15.59702229 -15.625 17.3125 C-20.3393777 20.44867401 -24.15086828 23.87520102 -28 28 C-28.99654182 29.00344626 -29.99551241 30.00450782 -31 31 C-30.67 29.68 -30.34 28.36 -30 27 C-31.32 26.67 -32.64 26.34 -34 26 C-33.505 24.515 -33.505 24.515 -33 23 C-31.35 23.99 -29.7 24.98 -28 26 C-28 24.68 -28 23.36 -28 22 C-26.68 21.67 -25.36 21.34 -24 21 C-24 20.01 -24 19.02 -24 18 C-23.01 17.34 -22.02 16.68 -21 16 C-19.92863949 13.69855891 -18.92010283 11.3659787 -18 9 C-17.01 9 -16.02 9 -15 9 C-15.33 7.02 -15.66 5.04 -16 3 C-15.67 3.66 -15.34 4.32 -15 5 C-14.33613281 4.79503906 -13.67226562 4.59007813 -12.98828125 4.37890625 C-11.66376953 3.97478516 -11.66376953 3.97478516 -10.3125 3.5625 C-9.00732422 3.16224609 -9.00732422 3.16224609 -7.67578125 2.75390625 C-5.12974079 2.03655471 -2.5996577 1.482459 0 1 C0 0.67 0 0.34 0 0 Z " fill="#F4660C" transform="translate(129,83)"/>
<path d="M0 0 C1.11693649 1.67540473 2.20805232 3.37176562 3.19140625 5.12890625 C10.74120912 18.52926861 21.04071955 28.51445864 36 33 C36 33.99 36 34.98 36 36 C37.32 36 38.64 36 40 36 C40 36.66 40 37.32 40 38 C33.03460774 37.5140424 26.13943494 35.3010585 20 32 C19.234375 29.90625 19.234375 29.90625 19 28 C16.72399002 26.55852701 14.56663734 25.85554578 12 25 C10.28891311 23.37897032 8.62746694 21.70496537 7 20 C6.0925 19.154375 5.185 18.30875 4.25 17.4375 C2.119101 15.12902609 1.21278288 14.08535181 1 11 C1.33 10.34 1.66 9.68 2 9 C1.34 8.67 0.68 8.34 0 8 C0 5.36 0 2.72 0 0 Z " fill="#ED4E0B" transform="translate(92,165)"/>
<path d="M0 0 C0 1.65 0 3.3 0 5 C-0.66 5 -1.32 5 -2 5 C-2 5.99 -2 6.98 -2 8 C-4.76171975 8.92057325 -6.42490433 9.12851977 -9.2734375 9.1328125 C-10.0984375 9.13410156 -10.9234375 9.13539063 -11.7734375 9.13671875 C-12.63195312 9.13285156 -13.49046875 9.12898437 -14.375 9.125 C-15.22578125 9.12886719 -16.0765625 9.13273438 -16.953125 9.13671875 C-21.09619909 9.13026536 -24.96064436 9.04724035 -29 8 C-29.061875 7.38125 -29.12375 6.7625 -29.1875 6.125 C-29.828919 3.72238859 -29.828919 3.72238859 -32.5625 2.75 C-33.366875 2.5025 -34.17125 2.255 -35 2 C-35 1.67 -35 1.34 -35 1 C-28.344 1.896 -28.344 1.896 -26.15234375 2.55859375 C-23.2797451 3.14771108 -20.72776633 2.88776457 -17.8125 2.625 C-16.21341797 2.48964844 -16.21341797 2.48964844 -14.58203125 2.3515625 C-12.07355563 2.2753038 -12.07355563 2.2753038 -11 1 C-7.26155861 0.36517033 -3.79819843 0 0 0 Z " fill="#F58612" transform="translate(159,204)"/>
<path d="M0 0 C0.90621094 0.39832031 1.81242187 0.79664063 2.74609375 1.20703125 C9.42103259 4.11803096 16.03564426 6.83864822 23 9 C22.01 9.66 21.02 10.32 20 11 C20.66 11.61875 21.32 12.2375 22 12.875 C24 15 24 15 24 17 C17.0810127 17.26047952 11.90903582 15.28765736 5.9375 12.0625 C5.27032959 11.70220703 4.60315918 11.34191406 3.91577148 10.97070312 C-0.85401066 8.29197867 -0.85401066 8.29197867 -2 6 C-0.68 6.33 0.64 6.66 2 7 C2.33 5.68 2.66 4.36 3 3 C2.01 2.67 1.02 2.34 0 2 C0 1.34 0 0.68 0 0 Z " fill="#DC6615" transform="translate(106,195)"/>
<path d="M0 0 C2.31 0 4.62 0 7 0 C7 0.66 7 1.32 7 2 C7.99 1.67 8.98 1.34 10 1 C12.72687124 2.11312886 15.26419647 3.2843171 17.875 4.625 C18.58269531 4.96917969 19.29039062 5.31335938 20.01953125 5.66796875 C24.47498824 7.91643959 27.67049049 10.27878349 31 14 C24.2026605 15.33054305 19.60925957 14.9789227 13.32421875 12.0078125 C8.00247589 9.70023324 2.40116864 9.71258586 -3.3125 9.4375 C-4.14845703 9.39431641 -4.98441406 9.35113281 -5.84570312 9.30664062 C-7.89696935 9.20114693 -9.9484648 9.10012685 -12 9 C-12 8.67 -12 8.34 -12 8 C-4.74 7.67 2.52 7.34 10 7 C10 6.01 10 5.02 10 4 C7.36 4 4.72 4 2 4 C2 3.34 2 2.68 2 2 C1.34 2 0.68 2 0 2 C0 1.34 0 0.68 0 0 Z " fill="#E19819" transform="translate(148,81)"/>
<path d="M0 0 C0.33 0 0.66 0 1 0 C1.0093457 0.65895264 1.01869141 1.31790527 1.02832031 1.99682617 C1.30431132 17.49155679 1.63564555 30.84343974 10.14453125 44.29296875 C10.42683594 44.85628906 10.70914063 45.41960937 11 46 C10.67 46.66 10.34 47.32 10 48 C7.39391727 45.4837822 5.10618315 42.94865641 3 40 C2.67 40.66 2.34 41.32 2 42 C1.01 42 0.02 42 -1 42 C-1.48212214 40.43840941 -1.96055873 38.87568072 -2.4375 37.3125 C-2.70433594 36.44238281 -2.97117187 35.57226562 -3.24609375 34.67578125 C-4.70654228 29.49232404 -4.70654228 29.49232404 -5 27 C-4.01 25.515 -4.01 25.515 -3 24 C-2.34 25.32 -1.68 26.64 -1 28 C-1.00523682 27.3294458 -1.01047363 26.6588916 -1.01586914 25.96801758 C-1.03671605 22.916188 -1.04968469 19.86437344 -1.0625 16.8125 C-1.07087891 15.75740234 -1.07925781 14.70230469 -1.08789062 13.61523438 C-1.09111328 12.59365234 -1.09433594 11.57207031 -1.09765625 10.51953125 C-1.10289307 9.58214111 -1.10812988 8.64475098 -1.11352539 7.67895508 C-1.00082657 5.01950523 -0.59376649 2.59079427 0 0 Z M0 30 C1 32 1 32 1 32 Z M1 32 C2 36 2 36 2 36 Z " fill="#C13609" transform="translate(80,128)"/>
<path d="M0 0 C0.66 0.33 1.32 0.66 2 1 C1.34 2.32 0.68 3.64 0 5 C-1.32 4.67 -2.64 4.34 -4 4 C-4 4.66 -4 5.32 -4 6 C-3.01 6 -2.02 6 -1 6 C-1.33 6.99 -1.66 7.98 -2 9 C-3.32 9 -4.64 9 -6 9 C-6 9.66 -6 10.32 -6 11 C-8.31 11.66 -10.62 12.32 -13 13 C-13.99 12.01 -14.98 11.02 -16 10 C-15.67 9.21625 -15.34 8.4325 -15 7.625 C-13.88133489 5.15667503 -13.88133489 5.15667503 -14 3 C-13.113125 3.061875 -12.22625 3.12375 -11.3125 3.1875 C-6.79939974 2.93204149 -4.41678441 0 0 0 Z " fill="#F89F16" transform="translate(178,198)"/>
<path d="M0 0 C0 0.99 0 1.98 0 3 C-2.4702788 5.32912001 -4.44549448 6.81946332 -7.6875 7.875 C-8.450625 8.24625 -9.21375 8.6175 -10 9 C-10.309375 9.99 -10.61875 10.98 -10.9375 12 C-11.4634375 13.485 -11.4634375 13.485 -12 15 C-12.99 15.268125 -13.98 15.53625 -15 15.8125 C-15.99 16.204375 -16.98 16.59625 -18 17 C-19.16052871 19.93385996 -19.62725646 22.87666618 -20 26 C-20.63421875 26.12246094 -21.2684375 26.24492188 -21.921875 26.37109375 C-24.19716567 26.80696091 -24.19716567 26.80696091 -25.25 29.0625 C-25.4975 29.701875 -25.745 30.34125 -26 31 C-26.66 31 -27.32 31 -28 31 C-25.44309995 20.2041998 -16.19067272 10.19340261 -7.203125 4.10546875 C-4.83002987 2.67423765 -2.44590962 1.3021022 0 0 Z " fill="#DD4B14" transform="translate(112,87)"/>
<path d="M0 0 C0.33 0.99 0.66 1.98 1 3 C4.3 3.66 7.6 4.32 11 5 C11.33 6.32 11.66 7.64 12 9 C8.89476646 8.91911825 5.79149667 8.8062811 2.6875 8.6875 C1.36588867 8.65366211 1.36588867 8.65366211 0.01757812 8.61914062 C-0.82998047 8.58369141 -1.67753906 8.54824219 -2.55078125 8.51171875 C-3.72120972 8.47244263 -3.72120972 8.47244263 -4.9152832 8.43237305 C-7.44921166 7.9068329 -8.36927777 6.9591474 -10 5 C-9.5 3.0625 -9.5 3.0625 -8 1 C-5.30341548 0.31209578 -2.7982981 0.18053536 0 0 Z " fill="#F8860F" transform="translate(147,80)"/>
<path d="M0 0 C2.78993417 2.52463368 4.63500313 5.38273904 6.625 8.5625 C7.23601562 9.53316406 7.84703125 10.50382813 8.4765625 11.50390625 C10 14 10 14 11 16 C10.34 16.66 9.68 17.32 9 18 C10.65 19.98 12.3 21.96 14 24 C13.67 24.66 13.34 25.32 13 26 C-2 10.93333333 -2 10.93333333 -2 2 C-1.34 2 -0.68 2 0 2 C0 1.34 0 0.68 0 0 Z " fill="#D64513" transform="translate(82,168)"/>
<path d="M0 0 C-0.66 1.32 -1.32 2.64 -2 4 C-2.52207031 3.81824219 -3.04414063 3.63648437 -3.58203125 3.44921875 C-12.91082236 0.26337941 -22.30538393 -2.21248944 -32 -4 C-32 -4.33 -32 -4.66 -32 -5 C-19.9131575 -7.13754449 -11.18272423 -4.37419485 0 0 Z " fill="#D59526" transform="translate(174,81)"/>
<path d="M0 0 C1.65 0 3.3 0 5 0 C5.33 0.99 5.66 1.98 6 3 C4.35 3.33 2.7 3.66 1 4 C1.33 4.99 1.66 5.98 2 7 C1.67 7.33 1.34 7.66 1 8 C-1.03005482 8 -3.06064427 7.99642412 -5.08984375 7.9375 C-7.087577 7.86973661 -7.087577 7.86973661 -9 9 C-9 8.34 -9 7.68 -9 7 C-11.31 6.67 -13.62 6.34 -16 6 C-15.67 5.01 -15.34 4.02 -15 3 C-15 3.66 -15 4.32 -15 5 C-14.33613281 4.79503906 -13.67226562 4.59007813 -12.98828125 4.37890625 C-11.66376953 3.97478516 -11.66376953 3.97478516 -10.3125 3.5625 C-9.00732422 3.16224609 -9.00732422 3.16224609 -7.67578125 2.75390625 C-5.12974079 2.03655471 -2.5996577 1.482459 0 1 C0 0.67 0 0.34 0 0 Z " fill="#F7710B" transform="translate(129,83)"/>
<path d="M0 0 C0.8852947 2.47544187 1.09093521 3.71011262 0.29296875 6.25390625 C-0.07183594 7.01574219 -0.43664062 7.77757812 -0.8125 8.5625 C-1.16957031 9.32691406 -1.52664062 10.09132812 -1.89453125 10.87890625 C-3 13 -3 13 -5 16 C-5.45915507 18.96842658 -5.45915507 18.96842658 -5.625 22.1875 C-5.69976562 23.27417969 -5.77453125 24.36085937 -5.8515625 25.48046875 C-5.90054688 26.31191406 -5.94953125 27.14335937 -6 28 C-7.32 28 -8.64 28 -10 28 C-11.34164079 28.2981424 -12.67851173 28.62243192 -14 29 C-13.45321716 24.92790672 -12.24091739 22.6131926 -9.75 19.375 C-5.39333133 13.395786 -2.33687264 7.01061791 0 0 Z " fill="#ECB733" transform="translate(201,159)"/>
<path d="M0 0 C4.62 0.66 9.24 1.32 14 2 C13.67 2.66 13.34 3.32 13 4 C10.67843403 4.40729228 8.3431213 4.74438677 6 5 C12.93 5.495 12.93 5.495 20 6 C19.67 6.66 19.34 7.32 19 8 C16.50682319 8.36891876 14.13229712 8.60552749 11.625 8.75 C10.59632813 8.83314453 10.59632813 8.83314453 9.546875 8.91796875 C5.73223879 9.1628773 4.27035537 9.18023691 1 7 C1 6.34 1 5.68 1 5 C1.99 5 2.98 5 4 5 C4 4.01 4 3.02 4 2 C2.68 2 1.36 2 0 2 C0 1.34 0 0.68 0 0 Z " fill="#E28220" transform="translate(128,199)"/>
<path d="M0 0 C2.31 0.33 4.62 0.66 7 1 C6.01 1.33 5.02 1.66 4 2 C3.34 1.67 2.68 1.34 2 1 C2 2.32 2 3.64 2 5 C5.3 5.66 8.6 6.32 12 7 C12 6.34 12 5.68 12 5 C14.475 5.99 14.475 5.99 17 7 C16.67 7.66 16.34 8.32 16 9 C12.00836957 10.31668365 9.76842788 9.83256888 6 8.125 C-0.43483841 5.24943159 -6.35118219 4.77265421 -13.3125 4.4375 C-14.14845703 4.39431641 -14.98441406 4.35113281 -15.84570312 4.30664062 C-17.89696935 4.20114693 -19.9484648 4.10012685 -22 4 C-22 3.67 -22 3.34 -22 3 C-14.74 2.67 -7.48 2.34 0 2 C0 1.34 0 0.68 0 0 Z " fill="#E49832" transform="translate(158,86)"/>
<path d="M0 0 C2.82421875 0.12109375 2.82421875 0.12109375 6 1 C7.64453125 3.66015625 7.64453125 3.66015625 8.8125 7.0625 C9.2146875 8.23296875 9.616875 9.4034375 10.03125 10.609375 C11.13613107 14.47645876 11.76429863 17.99307671 12 22 C11.01 21.67 10.02 21.34 9 21 C8.2265625 19.28515625 8.2265625 19.28515625 7.625 17.0625 C6.01265852 11.71089849 3.5933103 6.93475233 1 2 C0.67 1.34 0.34 0.68 0 0 Z " fill="#CBAC41" transform="translate(189,112)"/>
<path d="M0 0 C0.99 0.33 1.98 0.66 3 1 C3 1.66 3 2.32 3 3 C4.32 3.33 5.64 3.66 7 4 C1.48609703 7.18109787 -4.52485158 7.19346279 -10.75 7.1875 C-11.44867188 7.18814453 -12.14734375 7.18878906 -12.8671875 7.18945312 C-18.41259051 7.13318059 -23.63310324 6.44493374 -29 5 C-29 4.67 -29 4.34 -29 4 C-28.19256348 4.00523682 -27.38512695 4.01047363 -26.55322266 4.01586914 C-22.91048962 4.03659929 -19.26776898 4.04964749 -15.625 4.0625 C-14.35398438 4.07087891 -13.08296875 4.07925781 -11.7734375 4.08789062 C-10.56171875 4.09111328 -9.35 4.09433594 -8.1015625 4.09765625 C-6.98088379 4.10289307 -5.86020508 4.10812988 -4.70556641 4.11352539 C-2.03132657 4.18621466 -2.03132657 4.18621466 0 3 C0 2.01 0 1.02 0 0 Z " fill="#D9852D" transform="translate(156,208)"/>
<path d="M0 0 C2.4375 0.6875 2.4375 0.6875 5 2 C5.37309899 3.65821773 5.70700977 5.32577014 6 7 C7.78228936 8.14209817 7.78228936 8.14209817 10 9 C12.75 11 12.75 11 15 13 C15 13.66 15 14.32 15 15 C15.598125 15.12375 16.19625 15.2475 16.8125 15.375 C19 16 19 16 22 18 C22 18.66 22 19.32 22 20 C12.60239069 17.4183893 5.83461819 9.52358662 0 2 C0 1.34 0 0.68 0 0 Z " fill="#C1450E" transform="translate(89,175)"/>
<path d="M0 0 C0.99 0.33 1.98 0.66 3 1 C2.67 1.66 2.34 2.32 2 3 C1.01 3.33 0.02 3.66 -1 4 C-1 4.99 -1 5.98 -1 7 C-1.66 7 -2.32 7 -3 7 C-3.103125 7.639375 -3.20625 8.27875 -3.3125 8.9375 C-3.539375 9.618125 -3.76625 10.29875 -4 11 C-4.99 11.33 -5.98 11.66 -7 12 C-7 12.99 -7 13.98 -7 15 C-7.99 15.33 -8.98 15.66 -10 16 C-9.67 14.35 -9.34 12.7 -9 11 C-8.34 11 -7.68 11 -7 11 C-7 10.34 -7 9.68 -7 9 C-7.99 9 -8.98 9 -10 9 C-10 8.34 -10 7.68 -10 7 C-8.06640625 5.52734375 -8.06640625 5.52734375 -5.5625 3.9375 C-2.6281857 2.16321108 -2.6281857 2.16321108 0 0 Z " fill="#F75909" transform="translate(112,89)"/>
<path d="M0 0 C6.55652174 0.8826087 6.55652174 0.8826087 9.125 1.5625 C11.44929721 2.10483602 13.62216121 2.06605108 16 2 C15.67 3.65 15.34 5.3 15 7 C11.67465243 8.10844919 9.37817425 7.84454356 6 7 C5.938125 6.38125 5.87625 5.7625 5.8125 5.125 C5.171081 2.72238859 5.171081 2.72238859 2.4375 1.75 C1.633125 1.5025 0.82875 1.255 0 1 C0 0.67 0 0.34 0 0 Z " fill="#F7760F" transform="translate(124,205)"/>
<path d="M0 0 C3.82220706 0.39540073 5.5844068 2.11687263 8 5 C9.8125 8.0625 9.8125 8.0625 11 11 C10.67 11.99 10.34 12.98 10 14 C4.12991427 10.8601867 1.85809327 6.91852943 -1 1 C-0.67 0.67 -0.34 0.34 0 0 Z " fill="#F7BF1F" transform="translate(193,99)"/>
<path d="M0 0 C0.89203125 0.00902344 1.7840625 0.01804687 2.703125 0.02734375 C3.37859375 0.03894531 4.0540625 0.05054687 4.75 0.0625 C4.75 0.7225 4.75 1.3825 4.75 2.0625 C3.84507812 2.15337891 3.84507812 2.15337891 2.921875 2.24609375 C1.72304687 2.37177734 1.72304687 2.37177734 0.5 2.5 C-0.28890625 2.58121094 -1.0778125 2.66242188 -1.890625 2.74609375 C-4.83568468 3.14104381 -7.407925 3.58131428 -10 5.0625 C-13.34613831 6.54967258 -16.61310804 6.6988108 -20.25 7.0625 C-20.25 6.4025 -20.25 5.7425 -20.25 5.0625 C-18.50093469 4.41413958 -16.75070781 3.76891216 -15 3.125 C-14.02546875 2.76535156 -13.0509375 2.40570313 -12.046875 2.03515625 C-7.83602396 0.57076811 -4.47423063 -0.05887146 0 0 Z " fill="#E3751F" transform="translate(134.25,80.9375)"/>
<path d="M0 0 C0.99 0.33 1.98 0.66 3 1 C3 1.66 3 2.32 3 3 C3.66 3 4.32 3 5 3 C5.33 2.01 5.66 1.02 6 0 C6.66 0.99 7.32 1.98 8 3 C5.9007236 4.3416203 3.7962168 5.67336839 1.6875 7 C1.09259766 7.3815625 0.49769531 7.763125 -0.11523438 8.15625 C-4.66015625 11 -4.66015625 11 -8 11 C-8 10.34 -8 9.68 -8 9 C-7.360625 8.87625 -6.72125 8.7525 -6.0625 8.625 C-5.381875 8.41875 -4.70125 8.2125 -4 8 C-3.67 7.34 -3.34 6.68 -3 6 C-3.99 6 -4.98 6 -6 6 C-6 5.34 -6 4.68 -6 4 C-4.68 4.33 -3.36 4.66 -2 5 C-1.34 3.35 -0.68 1.7 0 0 Z " fill="#F2AE2C" transform="translate(180,198)"/>
<path d="M0 0 C2.76276177 0.52268466 5.3260876 1.10869587 8 2 C8.33 1.34 8.66 0.68 9 0 C11.64 0.99 14.28 1.98 17 3 C17 3.99 17 4.98 17 6 C18.32 6 19.64 6 21 6 C21 6.66 21 7.32 21 8 C13.93029694 7.5067649 7.39531775 4.97521304 1 2 C0.67 1.34 0.34 0.68 0 0 Z " fill="#C15E1A" transform="translate(111,195)"/>
<path d="M0 0 C1.32 0.66 2.64 1.32 4 2 C3.33613281 2.59167969 2.67226562 3.18335937 1.98828125 3.79296875 C-2.44938962 7.7641983 -6.85786795 11.71979688 -11 16 C-10.67 14.68 -10.34 13.36 -10 12 C-11.32 11.67 -12.64 11.34 -14 11 C-13.67 10.01 -13.34 9.02 -13 8 C-11.35 8.99 -9.7 9.98 -8 11 C-8 9.68 -8 8.36 -8 7 C-6.68 6.67 -5.36 6.34 -4 6 C-4 5.01 -4 4.02 -4 3 C-2 1.3125 -2 1.3125 0 0 Z " fill="#E36216" transform="translate(109,98)"/>
<path d="M0 0 C0 3.51766039 -0.95408117 5.48016587 -2.375 8.6875 C-4.41406439 13.44146598 -5.9310016 17.94655301 -7 23 C-7.33 23 -7.66 23 -8 23 C-7.85811015 20.45805839 -7.71160845 17.91652007 -7.5625 15.375 C-7.52318359 14.66214844 -7.48386719 13.94929688 -7.44335938 13.21484375 C-7.19690319 9.08196318 -6.76529947 5.07730976 -6 1 C-5.01 1.33 -4.02 1.66 -3 2 C-2.01 1.34 -1.02 0.68 0 0 Z " fill="#DB4D16" transform="translate(97,114)"/>
<path d="M0 0 C5.94 2.475 5.94 2.475 12 5 C12 5.33 12 5.66 12 6 C10.02 6.33 8.04 6.66 6 7 C6 7.99 6 8.98 6 10 C6.66 10 7.32 10 8 10 C8 10.66 8 11.32 8 12 C3.56909529 10.79157144 1.01887244 9.48331435 -2 6 C-0.68 6.33 0.64 6.66 2 7 C2.33 5.68 2.66 4.36 3 3 C2.01 2.67 1.02 2.34 0 2 C0 1.34 0 0.68 0 0 Z " fill="#D75E1A" transform="translate(106,195)"/>
<path d="M0 0 C1.65 0 3.3 0 5 0 C4.26674793 1.48754006 3.51273922 2.96486192 2.75 4.4375 C2.12351562 5.67306641 2.12351562 5.67306641 1.484375 6.93359375 C0 9 0 9 -2.171875 9.78515625 C-3.07679687 9.89150391 -3.07679687 9.89150391 -4 10 C-4.33 11.65 -4.66 13.3 -5 15 C-5.66 15 -6.32 15 -7 15 C-6.25 8.375 -6.25 8.375 -4 5 C-3.34 5 -2.68 5 -2 5 C-1.34 3.35 -0.68 1.7 0 0 Z " fill="#E5420A" transform="translate(88,113)"/>
<path d="M0 0 C0.99 0 1.98 0 3 0 C3 0.66 3 1.32 3 2 C3.804375 2.2475 4.60875 2.495 5.4375 2.75 C6.283125 3.1625 7.12875 3.575 8 4 C8.33 5.32 8.66 6.64 9 8 C5.7 7.67 2.4 7.34 -1 7 C-1.33 5.68 -1.66 4.36 -2 3 C-1.34 2.01 -0.68 1.02 0 0 Z " fill="#F2650E" transform="translate(121,204)"/>
<path d="M0 0 C0.66 0 1.32 0 2 0 C2.04898438 1.03898438 2.09796875 2.07796875 2.1484375 3.1484375 C2.55209446 10.91953317 3.12216201 18.41572228 5 26 C1.25320254 23.50213502 1.02637049 22.33030597 0 18 C-0.22076719 14.86848074 -0.19004525 11.76218248 -0.125 8.625 C-0.11597656 7.79355469 -0.10695313 6.96210938 -0.09765625 6.10546875 C-0.0742622 4.07018663 -0.03839725 2.03505436 0 0 Z " fill="#CE4919" transform="translate(87,138)"/>
<path d="M0 0 C0.33 0.99 0.66 1.98 1 3 C4.3 3.66 7.6 4.32 11 5 C11.33 6.32 11.66 7.64 12 9 C5.07 8.505 5.07 8.505 -2 8 C-1.34 7.67 -0.68 7.34 0 7 C-0.2784375 5.824375 -0.2784375 5.824375 -0.5625 4.625 C-1 2 -1 2 0 0 Z " fill="#F69516" transform="translate(147,80)"/>
<path d="M0 0 C0.50789063 0.38671875 1.01578125 0.7734375 1.5390625 1.171875 C4.77913441 3.62316536 7.99121965 6.03252664 11.4375 8.1875 C14 10 14 10 15 13 C12.03 12.01 9.06 11.02 6 10 C6 9.34 6 8.68 6 8 C5.38125 7.71125 4.7625 7.4225 4.125 7.125 C2 6 2 6 0 4 C0 2.68 0 1.36 0 0 Z " fill="#E16113" transform="translate(105,185)"/>
<path d="M0 0 C2.66097389 1.33048694 3.3529518 3.13458432 4.46875 5.8125 C5.45855233 9.88815667 4.68238555 13.91390819 4 18 C1.93149509 14.89724263 1.21441918 12.5900783 0.3125 9 C0.04050781 7.948125 -0.23148437 6.89625 -0.51171875 5.8125 C-1 3 -1 3 0 0 Z " fill="#992D0D" transform="translate(76,152)"/>
<path d="M0 0 C0.66 0 1.32 0 2 0 C4.30008368 6.39824865 4.2989014 12.43503173 4.25 19.1875 C4.25773438 20.26708984 4.26546875 21.34667969 4.2734375 22.45898438 C4.27085937 23.49732422 4.26828125 24.53566406 4.265625 25.60546875 C4.26336914 26.54543701 4.26111328 27.48540527 4.25878906 28.45385742 C3.99083548 31.09016681 3.33897325 32.73591191 2 35 C2.01047363 34.38068604 2.02094727 33.76137207 2.03173828 33.12329102 C2.07376099 30.26973665 2.09947127 27.41624774 2.125 24.5625 C2.14175781 23.58861328 2.15851563 22.61472656 2.17578125 21.61132812 C2.21232165 16.14853867 1.85729454 11.23730642 0.43310547 5.95288086 C0 4 0 4 0 0 Z " fill="#DAB642" transform="translate(201,120)"/>
<path d="M0 0 C6.47914253 1.34472769 6.47914253 1.34472769 8.9375 4.4375 C10 7 10 7 10 10 C6.55204777 8.46757679 3.7800962 6.55468299 1 4 C0.1875 1.75 0.1875 1.75 0 0 Z " fill="#F4B423" transform="translate(175,94)"/>
<path d="M0 0 C0 0.99 0 1.98 0 3 C-2.55641153 5.40603439 -4.95699494 6.97935757 -8.125 8.5 C-11.05190567 10.02708122 -12.28312755 11.23392773 -14 14 C-14.66 13.34 -15.32 12.68 -16 12 C-14.46620188 10.55410731 -12.92256145 9.11865196 -11.375 7.6875 C-10.51648438 6.88699219 -9.65796875 6.08648437 -8.7734375 5.26171875 C-5.97799034 2.98205128 -3.27579084 1.48419262 0 0 Z " fill="#E25D14" transform="translate(112,87)"/>
<path d="M0 0 C1.98 0.99 1.98 0.99 4 2 C4 2.66 4 3.32 4 4 C4.66 4 5.32 4 6 4 C10.5191442 9.88225563 12.82919468 15.74100703 14 23 C11.65237511 20.65237511 10.67468576 18.43623374 9.25 15.4375 C6.5699711 9.96522425 3.53123376 4.95875379 0 0 Z " fill="#D7A93B" transform="translate(187,97)"/>
<path d="M0 0 C7.625 1.75 7.625 1.75 11 4 C10.67 4.66 10.34 5.32 10 6 C6.53058454 5.54177532 3.32604951 5.10868317 0 4 C0 2.68 0 1.36 0 0 Z " fill="#F7A21D" transform="translate(160,87)"/>
<path d="M0 0 C0.495 0.680625 0.99 1.36125 1.5 2.0625 C4.20666242 5.24282834 7.14864244 7.73667875 10.390625 10.3515625 C12 12 12 12 12 15 C11.5875 14.55269531 11.175 14.10539062 10.75 13.64453125 C6.97140872 9.6888185 3.28945108 6.70362271 -1.49609375 4.04296875 C-1.99238281 3.69878906 -2.48867187 3.35460937 -3 3 C-3 2.34 -3 1.68 -3 1 C-2.01 0.67 -1.02 0.34 0 0 Z " fill="#E7B540" transform="translate(174,94)"/>
<path d="M0 0 C1 3 1 3 0.0625 5.0625 C-0.288125 5.701875 -0.63875 6.34125 -1 7 C-1 7.66 -1 8.32 -1 9 C-0.34 9.33 0.32 9.66 1 10 C-0.98 10.99 -0.98 10.99 -3 12 C-3 11.34 -3 10.68 -3 10 C-3.66 10 -4.32 10 -5 10 C-4.49701212 5.59885603 -2.91227269 3.28804981 0 0 Z " fill="#F0AE20" transform="translate(186,185)"/>
<path d="M0 0 C6.55110395 2.63283138 12.24460315 5.91815826 18 10 C17.01 10.495 17.01 10.495 16 11 C14.08203125 10.14453125 14.08203125 10.14453125 11.8125 8.8125 C11.01585937 8.35101563 10.21921875 7.88953125 9.3984375 7.4140625 C8.21121094 6.71410156 8.21121094 6.71410156 7 6 C5.64681082 5.22745199 4.29276293 4.45640427 2.9375 3.6875 C1.968125 3.130625 0.99875 2.57375 0 2 C0 1.34 0 0.68 0 0 Z " fill="#D99721" transform="translate(161,84)"/>
<path d="M0 0 C3.90288685 2.60192457 3.99523245 4.51719093 5 9 C5 10.32 5 11.64 5 13 C4.01 12.67 3.02 12.34 2 12 C0.51117562 7.92532275 -0.26270217 4.33458585 0 0 Z " fill="#BA9D34" transform="translate(196,121)"/>
<path d="M0 0 C7.42857143 1 7.42857143 1 11 2 C11 1.34 11 0.68 11 0 C13.475 0.99 13.475 0.99 16 2 C15 4 15 4 12.76953125 4.74609375 C9.47723148 5.04792659 7.69511524 4.38585071 4.6875 3.0625 C3.80449219 2.68222656 2.92148438 2.30195312 2.01171875 1.91015625 C1.34785156 1.60980469 0.68398437 1.30945313 0 1 C0 0.67 0 0.34 0 0 Z " fill="#EFAA34" transform="translate(159,91)"/>
<path d="M0 0 C1.76025107 2.6403766 3.46070032 5.29852805 5.125 8 C5.66382812 8.86625 6.20265625 9.7325 6.7578125 10.625 C8 13 8 13 8 16 C7.59007813 15.50628906 7.18015625 15.01257813 6.7578125 14.50390625 C6.21898438 13.86324219 5.68015625 13.22257813 5.125 12.5625 C4.59132813 11.92441406 4.05765625 11.28632813 3.5078125 10.62890625 C2.0777243 8.89194996 2.0777243 8.89194996 0 8 C0 5.36 0 2.72 0 0 Z " fill="#CF4A18" transform="translate(92,165)"/>
<path d="M0 0 C4.62 0.66 9.24 1.32 14 2 C13.67 2.66 13.34 3.32 13 4 C10.03 4 7.06 4 4 4 C4 3.34 4 2.68 4 2 C2.68 2 1.36 2 0 2 C0 1.34 0 0.68 0 0 Z " fill="#BA7A36" transform="translate(128,199)"/>
<path d="M0 0 C4.62 0 9.24 0 14 0 C14 0.99 14 1.98 14 3 C12.04098546 2.88617347 10.0827662 2.75858875 8.125 2.625 C7.03445312 2.55539063 5.94390625 2.48578125 4.8203125 2.4140625 C2 2 2 2 0 0 Z " fill="#AE7A35" transform="translate(142,76)"/>
<path d="M0 0 C0.66 0 1.32 0 2 0 C1.67 1.32 1.34 2.64 1 4 C-0.62463842 4.05395478 -2.24978541 4.09277195 -3.875 4.125 C-4.77992188 4.14820313 -5.68484375 4.17140625 -6.6171875 4.1953125 C-9 4 -9 4 -11 2 C-7.37 2 -3.74 2 0 2 C0 1.34 0 0.68 0 0 Z " fill="#F1F1F3" transform="translate(249,140)"/>
<path d="M0 0 C2.37616467 2.37616467 3.04068181 4.35349521 4.1875 7.5 C4.55230469 8.4796875 4.91710937 9.459375 5.29296875 10.46875 C6 13 6 13 5 15 C-0.74031891 5.77448747 -0.74031891 5.77448747 0 0 Z " fill="#E0BE33" transform="translate(207,113)"/>
<path d="M0 0 C2.31 0 4.62 0 7 0 C7.33 0.99 7.66 1.98 8 3 C7 4 7 4 3.9375 4.0625 C2.968125 4.041875 1.99875 4.02125 1 4 C0.67 2.68 0.34 1.36 0 0 Z " fill="#F46009" transform="translate(111,201)"/>
<path d="M0 0 C1.32 0 2.64 0 4 0 C4 0.66 4 1.32 4 2 C4.598125 2.12375 5.19625 2.2475 5.8125 2.375 C8 3 8 3 11 5 C11 5.66 11 6.32 11 7 C6.00724943 5.72278474 3.42388092 3.82669043 0 0 Z " fill="#BB570F" transform="translate(100,188)"/>
<path d="M0 0 C2.9375 0.75 2.9375 0.75 6 2 C6.875 4.125 6.875 4.125 7 6 C4.69 5.67 2.38 5.34 0 5 C0 3.35 0 1.7 0 0 Z " fill="#C68924" transform="translate(156,75)"/>
<path d="M0 0 C4.75 1.875 4.75 1.875 7 3 C8.66619446 3.0396713 10.33391013 3.04384447 12 3 C12 3.66 12 4.32 12 5 C4.66666667 5.36666667 4.66666667 5.36666667 1.5 3.625 C0 2 0 2 0 0 Z " fill="#EFEFF0" transform="translate(127,123)"/>
<path d="M0 0 C2.66666667 0 5.33333333 0 8 0 C8 0.99 8 1.98 8 3 C6.68 3 5.36 3 4 3 C3.67 4.32 3.34 5.64 3 7 C2.34 6.67 1.68 6.34 1 6 C1.33 5.01 1.66 4.02 2 3 C1.34 2.67 0.68 2.34 0 2 C0 1.34 0 0.68 0 0 Z " fill="#F26C17" transform="translate(115,90)"/>
<path d="M0 0 C2.31 0.33 4.62 0.66 7 1 C7 2.98 7 4.96 7 7 C6.34 7 5.68 7 5 7 C3.96210419 5.35666496 2.96432076 3.68756133 2 2 C1.34 1.34 0.68 0.68 0 0 Z " fill="#F2AC1E" transform="translate(182,90)"/>
<path d="M0 0 C0.99 0.33 1.98 0.66 3 1 C3.33 2.32 3.66 3.64 4 5 C1.03 4.67 -1.94 4.34 -5 4 C-3.68 3.34 -2.36 2.68 -1 2 C-0.67 1.34 -0.34 0.68 0 0 Z " fill="#E66E1B" transform="translate(126,207)"/>
<path d="M0 0 C4.75 0.875 4.75 0.875 7 2 C6.67 3.32 6.34 4.64 6 6 C5.34 6 4.68 6 4 6 C4 5.34 4 4.68 4 4 C2.68 3.34 1.36 2.68 0 2 C0 1.34 0 0.68 0 0 Z " fill="#F4560C" transform="translate(102,196)"/>
<path d="M0 0 C6.75 1.625 6.75 1.625 9 5 C8.401875 4.814375 7.80375 4.62875 7.1875 4.4375 C4.83591238 3.77906313 4.83591238 3.77906313 2 5 C1.34 3.35 0.68 1.7 0 0 Z " fill="#E6AF27" transform="translate(175,94)"/>
<path d="M0 0 C0.33 0 0.66 0 1 0 C1 1.65 1 3.3 1 5 C-0.98 5.33 -2.96 5.66 -5 6 C-5 5.34 -5 4.68 -5 4 C-5.66 3.34 -6.32 2.68 -7 2 C-4.69 2 -2.38 2 0 2 C0 1.34 0 0.68 0 0 Z " fill="#F99119" transform="translate(158,204)"/>
<path d="M0 0 C1.5 1.375 1.5 1.375 3 3 C3 3.66 3 4.32 3 5 C2.34 5 1.68 5 1 5 C0.67 6.32 0.34 7.64 0 9 C-0.66 6.69 -1.32 4.38 -2 2 C-1.34 2 -0.68 2 0 2 C0 1.34 0 0.68 0 0 Z " fill="#B54115" transform="translate(82,168)"/>
<path d="M0 0 C0.66 0 1.32 0 2 0 C3.38232443 1.62626404 4.71937515 3.2925002 6 5 C5.67 5.66 5.34 6.32 5 7 C0.125 4.375 0.125 4.375 -1 1 C-0.67 0.67 -0.34 0.34 0 0 Z " fill="#F04807" transform="translate(91,184)"/>
<path d="M0 0 C3.08089673 2.77280706 4.68775452 5.06326356 6 9 C4.68 9.33 3.36 9.66 2 10 C1.7834375 8.63875 1.7834375 8.63875 1.5625 7.25 C1.13590527 4.78523044 0.64925779 2.41152893 0 0 Z " fill="#E5B930" transform="translate(201,104)"/>
<path d="M0 0 C2.64 0 5.28 0 8 0 C7.67 0.99 7.34 1.98 7 3 C4 4 4 4 1.8125 3.0625 C1.214375 2.711875 0.61625 2.36125 0 2 C0 1.34 0 0.68 0 0 Z " fill="#EC8315" transform="translate(139,81)"/>
<path d="M0 0 C0.33 0.66 0.66 1.32 1 2 C-0.30406884 4.01920337 -1.63823419 6.01924973 -3 8 C-3.33 8 -3.66 8 -4 8 C-4 6.35 -4 4.7 -4 3 C-3.34 3 -2.68 3 -2 3 C-2 2.34 -2 1.68 -2 1 C-1.34 0.67 -0.68 0.34 0 0 Z " fill="#F2CC3C" transform="translate(205,179)"/>
<path d="M0 0 C1.65 0.99 3.3 1.98 5 3 C4.34 4.65 3.68 6.3 3 8 C2.67 7.34 2.34 6.68 2 6 C2.33 5.34 2.66 4.68 3 4 C1.68 3.67 0.36 3.34 -1 3 C-0.67 2.01 -0.34 1.02 0 0 Z " fill="#E75211" transform="translate(96,106)"/>
<path d="M0 0 C0.99 0 1.98 0 3 0 C3 0.66 3 1.32 3 2 C4.32 2 5.64 2 7 2 C7 2.66 7 3.32 7 4 C4.69 3.67 2.38 3.34 0 3 C0 2.01 0 1.02 0 0 Z " fill="#CC4C0E" transform="translate(125,199)"/>
<path d="M0 0 C0.66 0.33 1.32 0.66 2 1 C0.07423885 3.43929746 -1.80090595 5.80090595 -4 8 C-4.66 7.34 -5.32 6.68 -6 6 C-4.02 4.02 -2.04 2.04 0 0 Z " fill="#D05A1F" transform="translate(102,93)"/>
</svg>
